inDegrees=no
DataType=double
version=3
OpenSimVersion=4.4-2022-10-11-798caa840
endheader
time	elv_angle	shoulder_elv	shoulder_rot	elbow_flexion	pro_sup	deviation	flexion
1.201042571676803	0	1.48352986419518	0	1.212169561583658	0	0	0
1.205212858384014	0	1.48352986419518	0	1.214443103414185	0	0	0
1.209383145091225	0	1.48352986419518	0	1.216728916087965	0	0	0
1.213553431798436	0	1.48352986419518	0	1.219026857876625	0	0	0
1.217723718505647	0	1.48352986419518	0	1.221336785666389	0	0	0
1.221894005212858	0	1.48352986419518	0	1.223658554978004	0	0	0
1.226064291920069	0	1.48352986419518	0	1.225992019986683	0	0	0
1.230234578627281	0	1.48352986419518	0	1.228337033542033	0	0	0
1.234404865334492	0	1.48352986419518	0	1.23069344718799	0	0	0
1.238575152041703	0	1.48352986419518	0	1.233061111182754	0	0	0
1.242745438748914	0	1.48352986419518	0	1.235439874518722	0	0	0
1.246915725456125	0	1.48352986419518	0	1.237829584942422	0	0	0
1.251086012163336	0	1.48352986419518	0	1.240230088974449	0	0	0
1.255256298870547	0	1.48352986419518	0	1.242641231929394	0	0	0
1.259426585577758	0	1.48352986419518	0	1.245062857935783	0	0	0
1.26359687228497	0	1.48352986419518	0	1.247494809956007	0	0	0
1.267767158992181	0	1.48352986419518	0	1.249936929806262	0	0	0
1.271937445699392	0	1.48352986419518	0	1.252389058176473	0	0	0
1.276107732406603	0	1.48352986419518	0	1.254851034650237	0	0	0
1.280278019113814	0	1.48352986419518	0	1.257322697724752	0	0	0
1.284448305821025	0	1.48352986419518	0	1.259803884830754	0	0	0
1.288618592528236	0	1.48352986419518	0	1.262294432352446	0	0	0
1.292788879235447	0	1.48352986419518	0	1.264794175647439	0	0	0
1.296959165942659	0	1.48352986419518	0	1.26730294906668	0	0	0
1.30112945264987	0	1.48352986419518	0	1.269820585974388	0	0	0
1.305299739357081	0	1.48352986419518	0	1.272346918767987	0	0	0
1.309470026064292	0	1.48352986419518	0	1.274881778898043	0	0	0
1.313640312771503	0	1.48352986419518	0	1.277424996888193	0	0	0
1.317810599478714	0	1.48352986419518	0	1.279976402355083	0	0	0
1.321980886185925	0	1.48352986419518	0	1.282535824028302	0	0	0
1.326151172893136	0	1.48352986419518	0	1.28510308977031	0	0	0
1.330321459600348	0	1.48352986419518	0	1.28767802659638	0	0	0
1.334491746307559	0	1.48352986419518	0	1.290260460694528	0	0	0
1.33866203301477	0	1.48352986419518	0	1.292850217445443	0	0	0
1.342832319721981	0	1.48352986419518	0	1.295447121442431	0	0	0
1.347002606429192	0	1.48352986419518	0	1.298050996511338	0	0	0
1.351172893136403	0	1.48352986419518	0	1.300661665730491	0	0	0
1.355343179843614	0	1.48352986419518	0	1.303278951450628	0	0	0
1.359513466550826	0	1.48352986419518	0	1.305902675314836	0	0	0
1.363683753258037	0	1.48352986419518	0	1.308532658278479	0	0	0
1.367854039965248	0	1.48352986419518	0	1.31116872062914	0	0	0
1.372024326672459	0	1.48352986419518	0	1.313810682006546	0	0	0
1.37619461337967	0	1.48352986419518	0	1.316458361422507	0	0	0
1.380364900086881	0	1.48352986419518	0	1.319111577280851	0	0	0
1.384535186794092	0	1.48352986419518	0	1.321770147397354	0	0	0
1.388705473501303	0	1.48352986419518	0	1.324433889019678	0	0	0
1.392875760208514	0	1.48352986419518	0	1.327102618847299	0	0	0
1.397046046915726	0	1.48352986419518	0	1.329776153051447	0	0	0
1.401216333622937	0	1.48352986419518	0	1.332454307295039	0	0	0
1.405386620330148	0	1.48352986419518	0	1.335136896752608	0	0	0
1.409556907037359	0	1.48352986419518	0	1.337823736130244	0	0	0
1.41372719374457	0	1.48352986419518	0	1.340514639685521	0	0	0
1.417897480451781	0	1.48352986419518	0	1.343209421247437	0	0	0
1.422067767158992	0	1.48352986419518	0	1.345907894236342	0	0	0
1.426238053866203	0	1.48352986419518	0	1.348609871683877	0	0	0
1.430408340573414	0	1.48352986419518	0	1.351315166252905	0	0	0
1.434578627280626	0	1.48352986419518	0	1.354023590257447	0	0	0
1.438748913987837	0	1.48352986419518	0	1.356734955682613	0	0	0
1.442919200695048	0	1.48352986419518	0	1.359449074204538	0	0	0
1.447089487402259	0	1.48352986419518	0	1.362165757210317	0	0	0
1.45125977410947	0	1.48352986419518	0	1.364884815817935	0	0	0
1.455430060816681	0	1.48352986419518	0	1.367606060896205	0	0	0
1.459600347523892	0	1.48352986419518	0	1.370329303084698	0	0	0
1.463770634231103	0	1.48352986419518	0	1.373054352813682	0	0	0
1.467940920938315	0	1.48352986419518	0	1.375781020324051	0	0	0
1.472111207645526	0	1.48352986419518	0	1.378509115687261	0	0	0
1.476281494352737	0	1.48352986419518	0	1.381238448825264	0	0	0
1.480451781059948	0	1.48352986419518	0	1.383968829530442	0	0	0
1.484622067767159	0	1.48352986419518	0	1.386700067485539	0	0	0
1.48879235447437	0	1.48352986419518	0	1.3894319722836	0	0	0
1.492962641181581	0	1.48352986419518	0	1.392164353447897	0	0	0
1.497132927888792	0	1.48352986419518	0	1.39489702045187	0	0	0
1.501303214596003	0	1.48352986419518	0	1.397629782739057	0	0	0
1.505473501303215	0	1.48352986419518	0	1.40036244974303	0	0	0
1.509643788010426	0	1.48352986419518	0	1.403094830907327	0	0	0
1.513814074717637	0	1.48352986419518	0	1.405826735705388	0	0	0
1.517984361424848	0	1.48352986419518	0	1.408557973660485	0	0	0
1.522154648132059	0	1.48352986419518	0	1.411288354365663	0	0	0
1.52632493483927	0	1.48352986419518	0	1.414017687503666	0	0	0
1.530495221546481	0	1.48352986419518	0	1.416745782866876	0	0	0
1.534665508253692	0	1.48352986419518	0	1.419472450377245	0	0	0
1.538835794960904	0	1.48352986419518	0	1.422197500106229	0	0	0
1.543006081668115	0	1.48352986419518	0	1.424920742294723	0	0	0
1.547176368375326	0	1.48352986419518	0	1.427641987372992	0	0	0
1.551346655082537	0	1.48352986419518	0	1.43036104598061	0	0	0
1.555516941789748	0	1.48352986419518	0	1.433077728986389	0	0	0
1.559687228496959	0	1.48352986419518	0	1.435791847508314	0	0	0
1.56385751520417	0	1.48352986419518	0	1.438503212933481	0	0	0
1.568027801911381	0	1.48352986419518	0	1.441211636938023	0	0	0
1.572198088618593	0	1.48352986419518	0	1.443916931507051	0	0	0
1.576368375325804	0	1.48352986419518	0	1.446618908954586	0	0	0
1.580538662033015	0	1.48352986419518	0	1.449317381943491	0	0	0
1.584708948740226	0	1.48352986419518	0	1.452012163505406	0	0	0
1.588879235447437	0	1.48352986419518	0	1.454703067060683	0	0	0
1.593049522154648	0	1.48352986419518	0	1.457389906438319	0	0	0
